<svg xmlns="http://www.w3.org/2000/svg" viewBox="0 0 1024 1024" role="img" aria-labelledby="title desc">
  <title id="title">Context Translator app icon</title>
  <desc id="desc">A focused context window turning source text into translated text.</desc>
  <defs>
    <linearGradient id="ocean" x1="126" y1="82" x2="884" y2="934" gradientUnits="userSpaceOnUse">
      <stop offset="0" stop-color="#2AA8F5"/>
      <stop offset="0.46" stop-color="#1778E8"/>
      <stop offset="1" stop-color="#0B50BC"/>
    </linearGradient>
    <radialGradient id="surfaceLight" cx="0" cy="0" r="1" gradientUnits="userSpaceOnUse" gradientTransform="translate(224 142) rotate(48) scale(620 580)">
      <stop offset="0" stop-color="#FFFFFF" stop-opacity="0.18"/>
      <stop offset="0.68" stop-color="#FFFFFF" stop-opacity="0"/>
    </radialGradient>
    <clipPath id="translatedLine">
      <rect x="356" y="558" width="312" height="78" rx="39"/>
    </clipPath>
  </defs>

  <rect width="1024" height="1024" rx="230" fill="url(#ocean)"/>
  <rect width="1024" height="1024" rx="230" fill="url(#surfaceLight)"/>
  <rect x="9" y="9" width="1006" height="1006" rx="222" fill="none" stroke="#FFFFFF" stroke-opacity="0.13" stroke-width="18"/>

  <g fill="none" stroke="#F8FCFF" stroke-linecap="round" stroke-linejoin="round" stroke-width="98">
    <path d="M382 278H330C278 278 244 320 244 372V652C244 704 278 746 330 746H382"/>
    <path d="M642 278H694C746 278 780 320 780 372V652C780 704 746 746 694 746H642"/>
  </g>

  <rect x="356" y="422" width="312" height="78" rx="39" fill="#F8FCFF"/>
  <g clip-path="url(#translatedLine)">
    <rect x="356" y="558" width="156" height="78" fill="#F8FCFF"/>
    <rect x="512" y="558" width="156" height="78" fill="#75F0D0"/>
  </g>
</svg>
